<svg width="60" height="52" viewBox="0 0 60 52" fill="none" xmlns="http://www.w3.org/2000/svg">
<g clip-path="url(#clip0_149_1685)">
<path d="M21.6981 34.7134C21.8676 34.6092 21.957 34.5649 22.0344 34.5049C25.1229 32.1244 28.5931 30.4305 32.2662 29.108C34.8955 28.1607 37.5729 27.332 40.3477 26.9424C45.0659 26.2805 49.3783 27.3763 53.1742 30.209C56.5403 32.7212 58.6344 36.0516 59.4672 40.1026C59.857 41.9997 60.0065 43.9282 59.8129 45.8696C59.5927 48.0704 58.7225 49.8919 56.6737 51.0307C55.7408 51.5493 54.7331 51.7917 53.6653 51.806C49.1154 51.8712 44.5654 51.9402 40.0154 51.995C37.7678 52.0223 35.5188 52.0354 33.2699 52.0301C31.3946 52.0262 29.518 52.0041 27.6428 51.9572C25.1696 51.8959 22.6964 51.8295 20.2259 51.7161C18.3693 51.6301 16.5101 51.5207 14.6629 51.3213C13.0065 51.1415 11.3035 51.0164 9.72987 50.5291C6.20627 49.4372 3.33935 47.4423 1.66431 44.0845C1.5255 43.807 1.33598 43.5529 1.17181 43.2871C0.919552 42.8753 0.644606 42.4753 0.42705 42.0466C-0.0414272 41.1254 -0.046766 40.1755 0.337626 39.2231C0.415038 39.0302 0.480438 38.8217 0.604565 38.6589C1.48413 37.5005 1.8445 36.1259 2.33433 34.8007C3.78381 30.8787 5.80453 27.2291 7.99477 23.6641C11.2875 18.3023 15.0099 13.2232 18.7431 8.1533C20.0083 6.43466 21.2603 4.7069 22.5069 2.97653C22.8873 2.44882 23.3664 2.07225 23.9884 1.84814C26.1866 1.05983 28.4316 0.442215 30.7633 0.18683C32.6693 -0.0216486 34.5845 -0.0333752 36.4945 0.155558C38.2896 0.332765 40.0821 0.523001 41.8746 0.724964C42.0522 0.744509 42.2724 0.843536 42.3778 0.976441C43.539 2.44621 44.6962 3.92119 45.8253 5.41442C46.6929 6.56235 47.3242 7.83146 47.6872 9.21784C47.7339 9.39505 47.742 9.60744 47.6859 9.77943C47.2374 11.1749 46.6021 12.4805 45.6852 13.6493C45.5851 13.777 45.521 13.9764 45.5344 14.1353C45.5691 14.5705 45.4623 14.9549 45.2327 15.321C44.7229 16.1367 44.0609 16.796 43.176 17.2247C42.5794 17.514 41.9574 17.5765 41.3941 17.2C40.8856 16.8599 40.3718 16.4898 39.978 16.0351C39.6737 15.6833 39.3654 15.5165 38.9236 15.4748C37.645 15.3575 36.3677 15.2129 35.0891 15.1008C33.6863 14.9784 32.5184 14.3868 31.5454 13.4239C31.0796 12.9626 30.6632 12.4532 30.2374 11.9554C29.9118 11.5763 29.7876 11.5528 29.3806 11.8577C28.4837 12.5274 27.8577 13.4122 27.3345 14.3686C26.256 16.3387 25.5967 18.4612 25.0855 20.6216C24.3541 23.7097 23.7135 26.8186 22.9941 29.9093C22.6564 31.3582 22.2266 32.7876 21.8369 34.2261C21.8022 34.3603 21.7621 34.4919 21.6981 34.7134ZM39.6137 13.6636C38.5312 13.5255 37.5849 13.1802 36.7601 12.5418C36.6947 12.491 36.5492 12.4831 36.4691 12.5183C35.408 12.9887 34.395 12.7854 33.386 12.3476C32.8801 12.1287 32.5411 11.7665 32.4664 11.2531C32.385 10.6915 32.397 10.1169 32.393 9.5475C32.3916 9.23348 32.5611 9.02761 32.9122 9.03673C33.2632 9.04585 33.402 9.25302 33.4033 9.57226C33.4047 9.94882 33.3686 10.3293 33.414 10.7006C33.442 10.9274 33.5341 11.2453 33.7036 11.3404C34.3203 11.6857 34.989 11.8994 35.727 11.7052C36.0821 11.6114 36.2569 11.4186 36.2876 11.0525C36.3343 10.483 36.4331 9.91885 36.4771 9.34945C36.4918 9.1566 36.4598 8.92988 36.365 8.7631C35.7471 7.6725 35.1077 6.59232 34.4738 5.51084C34.3149 5.24112 34.2949 4.98052 34.5685 4.78508C34.8435 4.58702 35.0997 4.67693 35.3013 4.92059C35.4014 5.04176 35.4908 5.17206 35.5682 5.30757C36.1581 6.32521 36.7334 7.34936 37.3353 8.36048C37.5355 8.69665 37.5809 9.03282 37.5289 9.40547C37.4421 10.0231 37.3887 10.6446 37.286 11.2596C37.2406 11.5346 37.3273 11.7039 37.5409 11.8551C38.263 12.3659 39.0638 12.6434 39.9594 12.6447C40.4892 12.6447 40.5399 12.5978 40.596 12.0753C40.6841 11.2622 40.7562 10.4466 40.8709 9.6361C40.9137 9.33902 40.8469 9.11491 40.6801 8.87646C39.8606 7.70768 39.0531 6.53108 38.2429 5.35709C37.968 4.95837 37.6744 4.57008 37.4341 4.15182C37.3514 4.0085 37.3447 3.75832 37.4181 3.61369C37.4835 3.4873 37.7358 3.35179 37.8625 3.38306C38.0547 3.42997 38.259 3.58763 38.3751 3.75311C39.4588 5.29585 40.5106 6.86074 41.6037 8.39566C41.9027 8.81522 41.9827 9.21915 41.904 9.70907C41.7999 10.3567 41.7532 11.0147 41.6891 11.6114C42.2724 11.6114 42.8009 11.6114 43.3695 11.6114C43.7205 10.3762 44.2864 9.11751 43.2574 7.88358C43.1413 7.74416 43.0799 7.56435 42.9824 7.4093C42.2123 6.19491 41.4382 4.98183 40.6681 3.76614C40.4572 3.43388 40.4906 3.15113 40.7668 2.98304C41.0618 2.80193 41.3114 2.89835 41.4876 3.15895C42.7142 4.9688 43.9287 6.78647 44.8537 8.76701C44.9404 8.95334 44.9698 9.20221 44.9284 9.40417C44.7509 10.2694 44.532 11.1254 44.3438 11.988C44.3171 12.1092 44.3251 12.2812 44.3945 12.3698C44.5454 12.5613 44.7482 12.7151 44.9618 12.9131C45.0659 12.7815 45.1847 12.6747 45.2514 12.5418C45.7132 11.6375 46.179 10.7345 46.6061 9.81461C46.6942 9.62698 46.6809 9.35335 46.6181 9.14618C46.2738 7.98782 45.7226 6.92198 44.9831 5.95646C43.9314 4.58311 42.8636 3.22149 41.7825 1.87029C41.6718 1.73217 41.4302 1.64487 41.2393 1.62403C39.6017 1.4364 37.9653 1.20446 36.3223 1.11586C34.706 1.02856 33.075 1.01423 31.46 1.10935C29.0402 1.25137 26.7272 1.9198 24.4542 2.71984C23.959 2.89444 23.58 3.17328 23.2783 3.60066C22.4108 4.83068 21.5259 6.05028 20.633 7.26336C16.7864 12.4844 12.9158 17.6886 9.46827 23.1755C7.16859 26.8342 5.04509 30.5816 3.46882 34.6027C2.84819 36.1845 2.49583 37.8771 1.39871 39.2569C1.34399 39.326 1.32263 39.4224 1.28526 39.5058C0.942242 40.2876 0.979614 41.0629 1.40405 41.7939C2.02601 42.8649 2.68135 43.919 3.33134 44.9745C3.46748 45.196 3.63165 45.4057 3.80516 45.5999C6.15556 48.2319 9.08921 49.8007 12.6675 50.1134C15.7667 50.3845 18.8685 50.6516 21.9743 50.7949C25.3498 50.95 28.7306 50.9943 32.11 51.0255C35.4227 51.0568 38.7368 51.0294 42.0508 50.9956C45.9228 50.9565 49.7947 50.8848 53.6667 50.8236C56.1959 50.7832 58.1899 49.1349 58.6571 46.7048C59.0668 44.577 58.8893 42.4584 58.4929 40.3541C57.1462 33.2163 50.7944 28.0304 43.3802 27.732C41.1806 27.6434 39.0691 28.1008 36.9763 28.6728C30.9675 30.3145 25.3057 32.6117 20.7371 36.948C20.5315 37.1435 20.3006 37.2021 20.0537 37.034C19.8068 36.866 19.7881 36.6275 19.8936 36.3747C19.9736 36.1832 20.0724 35.9982 20.1565 35.8066C21.012 33.8639 21.5352 31.8234 22.0024 29.7686C22.7298 26.575 23.4038 23.3696 24.1619 20.1838C24.6864 17.9804 25.3845 15.8227 26.4963 13.82C27.1169 12.702 27.875 11.687 28.9495 10.9365C29.6021 10.4804 30.4056 10.5977 30.9088 11.2036C31.1344 11.4759 31.3559 11.7522 31.5801 12.0271C32.7253 13.4291 34.1735 14.2109 36.054 14.194C36.7668 14.1874 37.4808 14.306 38.1936 14.3764C38.4845 14.405 38.7715 14.4754 39.0624 14.491C39.1639 14.4962 39.3227 14.422 39.3654 14.3399C39.4735 14.1562 39.5202 13.9373 39.6137 13.6636ZM44.5454 14.3816C44.5267 14.2982 44.5227 14.2304 44.4973 14.1718C44.1463 13.3679 43.495 12.8805 42.6928 12.5587C42.6154 12.5274 42.5006 12.5326 42.4219 12.5652C41.4649 12.96 40.6934 13.5438 40.4025 14.5718C40.3651 14.706 40.3838 14.8924 40.4532 15.0122C40.7949 15.6012 41.2473 16.1015 41.9067 16.3465C42.1402 16.4338 42.4739 16.4455 42.6981 16.3491C43.4923 16.0077 44.0489 15.4005 44.4546 14.6591C44.5013 14.5718 44.5187 14.465 44.5454 14.3816Z" fill="black"/>
<path d="M39.6142 13.6636C39.5221 13.9386 39.4741 14.1575 39.3726 14.349C39.3286 14.4311 39.1711 14.5054 39.0696 14.5002C38.7787 14.4845 38.4917 14.4142 38.2008 14.3855C37.488 14.3151 36.774 14.1953 36.0612 14.2031C34.1807 14.2213 32.7325 13.4395 31.5874 12.0362C31.3631 11.7626 31.1416 11.485 30.916 11.2127C30.4128 10.6068 29.6093 10.4896 28.9567 10.9456C27.8822 11.6961 27.1241 12.7112 26.5035 13.8291C25.3904 15.8318 24.6937 17.9896 24.1691 20.1929C23.411 23.3787 22.737 26.5841 22.0096 29.7777C21.5411 31.8325 21.0192 33.873 20.1637 35.8158C20.0796 36.006 19.9809 36.191 19.9008 36.3839C19.7953 36.6366 19.814 36.8751 20.0609 37.0432C20.3079 37.2113 20.5374 37.1526 20.7443 36.9572C25.313 32.6195 30.9747 30.3224 36.9835 28.6819C39.0763 28.1099 41.1878 27.6538 43.3874 27.7411C50.8016 28.0382 57.1521 33.2254 58.5001 40.3632C58.8979 42.4675 59.074 44.5849 58.6643 46.714C58.1971 49.144 56.2031 50.7923 53.6739 50.8327C49.8019 50.8939 45.93 50.9656 42.058 51.0047C38.7453 51.0386 35.4299 51.0659 32.1172 51.0347C28.7378 51.0034 25.357 50.9591 21.9816 50.804C18.8757 50.6607 15.7726 50.3936 12.6747 50.1226C9.09776 49.8098 6.1641 48.2397 3.81237 45.609C3.63753 45.4136 3.4747 45.2051 3.33856 44.9836C2.68856 43.9282 2.03456 42.874 1.41126 41.803C0.986827 41.072 0.948121 40.2967 1.29247 39.5149C1.32851 39.4315 1.34986 39.3364 1.40592 39.2661C2.50304 37.8862 2.85673 36.1923 3.47603 34.6118C5.0523 30.5908 7.17714 26.8434 9.47548 23.1846C12.923 17.6977 16.7936 12.4936 20.6402 7.27249C21.5331 6.0594 22.418 4.83981 23.2856 3.60979C23.5872 3.18241 23.9663 2.90226 24.4614 2.72897C26.7344 1.92893 29.0474 1.2605 31.4672 1.11847C33.0822 1.02335 34.7132 1.03769 36.3295 1.12499C37.9739 1.21359 39.6089 1.44552 41.2465 1.63315C41.4374 1.6553 41.679 1.7413 41.7898 1.87942C42.8709 3.23062 43.9386 4.59224 44.9903 5.96559C45.7284 6.9311 46.2797 7.99695 46.6254 9.15531C46.6867 9.36248 46.7001 9.63611 46.6133 9.82374C46.1862 10.7436 45.7204 11.6466 45.2586 12.5509C45.1906 12.6838 45.0731 12.7906 44.969 12.9222C44.7554 12.7229 44.5526 12.5704 44.4017 12.3789C44.331 12.2903 44.3243 12.1183 44.351 11.9971C44.5406 11.1345 44.7594 10.2785 44.9356 9.4133C44.977 9.21264 44.9476 8.96377 44.8609 8.77614C43.9359 6.79559 42.7214 4.97662 41.4948 3.16807C41.3186 2.90748 41.069 2.81105 40.7741 2.99217C40.4978 3.16156 40.4631 3.443 40.6753 3.77527C41.4454 4.98965 42.2195 6.20273 42.9896 7.41842C43.0871 7.57348 43.1498 7.75329 43.2646 7.89271C44.2936 9.12794 43.7277 10.3866 43.3767 11.6206C42.8081 11.6206 42.2796 11.6206 41.6963 11.6206C41.7617 11.0225 41.8071 10.3658 41.9112 9.7182C41.99 9.22827 41.9099 8.82435 41.6109 8.40478C40.5165 6.86856 39.4647 5.30497 38.3823 3.76224C38.2662 3.59676 38.062 3.4391 37.8698 3.39219C37.743 3.36092 37.4907 3.49773 37.4253 3.62282C37.3506 3.76745 37.3586 4.01762 37.4413 4.16095C37.6816 4.57921 37.9752 4.9675 38.2501 5.36622C39.0603 6.54021 39.8678 7.71681 40.6873 8.88559C40.8541 9.12403 40.9209 9.34815 40.8782 9.64523C40.7634 10.4544 40.69 11.2701 40.6032 12.0844C40.5472 12.6082 40.4964 12.6551 39.9666 12.6538C39.071 12.6525 38.2702 12.375 37.5481 11.8642C37.3345 11.7131 37.2465 11.545 37.2932 11.2688C37.3959 10.6537 37.4493 10.0322 37.5361 9.4146C37.5881 9.04195 37.5428 8.70577 37.3426 8.3696C36.7406 7.35848 36.164 6.33434 35.5754 5.3167C35.4967 5.18119 35.4086 5.04959 35.3085 4.92971C35.1069 4.68605 34.8507 4.59615 34.5757 4.7942C34.3021 4.99095 34.3235 5.25155 34.481 5.51997C35.1163 6.60145 35.7556 7.68163 36.3722 8.77223C36.467 8.93901 36.499 9.16573 36.4843 9.35857C36.4403 9.92798 36.3415 10.4922 36.2948 11.0616C36.2641 11.4264 36.0893 11.6206 35.7342 11.7144C34.9962 11.9085 34.3288 11.6948 33.7108 11.3495C33.5413 11.2544 33.4493 10.9365 33.4212 10.7098C33.3745 10.3384 33.4119 9.95795 33.4105 9.58138C33.4092 9.26215 33.2704 9.05498 32.9194 9.04586C32.5684 9.03673 32.3988 9.24261 32.4002 9.55663C32.4029 10.126 32.3908 10.702 32.4736 11.2622C32.5483 11.7756 32.8887 12.1378 33.3932 12.3567C34.4036 12.7933 35.4153 12.9978 36.4763 12.5274C36.5551 12.4923 36.7019 12.5014 36.7673 12.5509C37.5841 13.1789 38.5318 13.5242 39.6142 13.6636Z" fill="#FFB80F"/>
<path d="M44.5453 14.3816C44.5186 14.465 44.5013 14.5706 44.4519 14.6605C44.0461 15.4019 43.4896 16.0104 42.6954 16.3505C42.4712 16.4469 42.1389 16.4352 41.9039 16.3479C41.2446 16.1029 40.7921 15.6012 40.4505 15.0136C40.3811 14.8937 40.3624 14.7074 40.3997 14.5732C40.692 13.5438 41.4622 12.9614 42.4191 12.5666C42.4979 12.534 42.6127 12.5288 42.6901 12.5601C43.4922 12.8819 44.1436 13.3692 44.4946 14.1732C44.5226 14.2305 44.5266 14.2983 44.5453 14.3816Z" fill="#FFB80F"/>
</g>
<defs>
<clipPath id="clip0_149_1685">
<rect width="60" height="52" fill="white"/>
</clipPath>
</defs>
</svg>
