<svg width="269" height="215" viewBox="0 0 269 215" fill="none" xmlns="http://www.w3.org/2000/svg">
<path d="M159 215V120.6C159 86.4666 169.667 59.2666 191 39C212.867 18.2 238.733 5.39996 268.6 0.599957V38.2C254.2 43 241.4 51.8 230.2 64.6C219.533 77.4 214.2 92.8666 214.2 111H267V215H159ZM0.600001 215V120.6C0.600001 86.4666 11.2667 59.2666 32.6 39C54.4667 18.2 80.3333 5.39996 110.2 0.599957V38.2C95.8 43 83 51.8 71.8 64.6C61.1333 77.4 55.8 92.8666 55.8 111H108.6V215H0.600001Z" fill="#00A256"/>
</svg>
