<svg width="203" height="133" viewBox="0 0 203 133" fill="none" xmlns="http://www.w3.org/2000/svg">
<path d="M187.537 35C194.793 35 199.633 42.4849 196.657 49.1022L161.572 127.102C159.957 130.691 156.388 133 152.452 133L37.5594 133C30.2791 133 25.4389 125.469 28.4629 118.846L64.0795 40.8463C65.7058 37.2848 69.2608 35 73.176 35L187.537 35Z" fill="#D9D9D9"/>
<path d="M177.601 16C184.84 16 189.681 23.4541 186.736 30.0676L151.56 109.068C149.954 112.676 146.374 115 142.425 115L27.4942 115C20.2304 115 15.39 107.5 18.3819 100.881L54.0907 21.8811C55.7091 18.3008 59.274 16 63.2031 16L177.601 16Z" fill="#CECECE"/>
<path d="M164.572 -6.74385e-07C171.819 -3.57611e-07 176.659 7.46805 173.7 14.0833L138.809 92.0833C137.199 95.6828 133.624 98 129.681 98L15.5237 98C8.25245 98 3.41212 90.486 6.41856 83.8653L41.8384 5.86533C43.4603 2.29357 47.0208 -5.8127e-06 50.9436 -5.64123e-06L164.572 -6.74385e-07Z" fill="#B6B6B6"/>
</svg>
