<svg class="service-svg" width="119" height="146" viewBox="0 0 119 146" fill="none" xmlns="http://www.w3.org/2000/svg">
<path d="M0 38.0625V60.9526C5.51681 64.7676 24.8913 74.9409 58.563 74.9409C92.937 74.9409 112.458 66.4631 118.399 60.9526V38.0625C70.5303 59.4266 19.521 46.9642 0 38.0625Z" fill="#BDBDBD"/>
<path d="M0 73V95.8901C5.51681 99.7051 24.8913 109.878 58.563 109.878C92.937 109.878 112.458 101.401 118.399 95.8901V73C70.5303 94.3641 19.521 81.9017 0 73Z" fill="#BDBDBD"/>
<path d="M0 108.908V131.798C5.51681 135.613 24.8913 145.787 58.563 145.787C92.937 145.787 112.458 137.309 118.399 131.798V108.908C70.5303 130.272 19.521 117.81 0 108.908Z" fill="#BDBDBD"/>
<ellipse cx="59.5" cy="17.5437" rx="59.5" ry="17.3301" fill="#BDBDBD"/>
</svg>
